<svg width="121" height="120" viewBox="0 0 121 120" fill="none" xmlns="http://www.w3.org/2000/svg">
<path d="M40.8301 90V28.58C40.8298 26.191 41.6848 23.8809 43.2402 22.0677C44.7957 20.2545 46.9489 19.0581 49.3101 18.695L94.3101 11.77C95.7352 11.5508 97.1908 11.6424 98.5772 12.0385C99.9635 12.4346 101.248 13.1258 102.342 14.0647C103.436 15.0037 104.315 16.1681 104.917 17.4782C105.519 18.7883 105.83 20.2132 105.83 21.655V80" stroke="white" stroke-width="10" stroke-linecap="round" stroke-linejoin="round"/>
<path d="M40.8301 45L105.83 35" stroke="white" stroke-width="10"/>
<path d="M40.8301 90C40.8301 93.9782 39.2497 97.7936 36.4367 100.607C33.6236 103.42 29.8083 105 25.8301 105C21.8518 105 18.0365 103.42 15.2235 100.607C12.4104 97.7936 10.8301 93.9782 10.8301 90C10.8301 81.715 17.5451 80 25.8301 80C34.1151 80 40.8301 81.715 40.8301 90ZM105.83 80C105.83 83.9782 104.25 87.7936 101.437 90.6066C98.6236 93.4196 94.8083 95 90.8301 95C86.8518 95 83.0365 93.4196 80.2235 90.6066C77.4104 87.7936 75.8301 83.9782 75.8301 80C75.8301 71.715 82.5451 70 90.8301 70C99.1151 70 105.83 71.715 105.83 80Z" stroke="white" stroke-width="10" stroke-linecap="round" stroke-linejoin="round"/>
</svg>
