<svg width="121" height="120" viewBox="0 0 121 120" fill="none" xmlns="http://www.w3.org/2000/svg">
<path d="M90.8301 55C90.8301 50.205 87.4301 46.195 82.9251 45.23C84.7251 42.225 85.8301 38.75 85.8301 35C85.8301 23.97 76.8601 15 65.8301 15C58.2451 15 51.7251 19.285 48.3301 25.52C44.9351 19.285 38.4151 15 30.8301 15C19.8001 15 10.8301 23.97 10.8301 35C10.8301 39.51 12.3901 43.635 14.9151 46.98C13.653 47.9029 12.6257 49.1096 11.9161 50.5028C11.2065 51.896 10.8344 53.4365 10.8301 55V95C10.8301 100.515 15.3151 105 20.8301 105H80.8301C86.3451 105 90.8301 100.515 90.8301 95V81.81L110.83 91.81V56.81L90.8301 66.81V55ZM65.8301 25C71.3451 25 75.8301 29.485 75.8301 35C75.8301 40.515 71.3451 45 65.8301 45C60.3151 45 55.8301 40.515 55.8301 35C55.8301 29.485 60.3151 25 65.8301 25ZM30.8301 25C36.3451 25 40.8301 29.485 40.8301 35C40.8301 40.515 36.3451 45 30.8301 45C25.3151 45 20.8301 40.515 20.8301 35C20.8301 29.485 25.3151 25 30.8301 25ZM20.8301 95V55H80.8301L80.8401 95H20.8301Z" fill="white"/>
</svg>
