<svg width="121" height="120" viewBox="0 0 121 120" fill="none" xmlns="http://www.w3.org/2000/svg">
<g clip-path="url(#clip0_18_73)">
<path fill-rule="evenodd" clip-rule="evenodd" d="M20.8301 35C20.8301 28.3696 23.464 22.0107 28.1524 17.3223C32.8408 12.6339 39.1997 10 45.8301 10H75.8301C82.4605 10 88.8193 12.6339 93.5077 17.3223C98.1962 22.0107 100.83 28.3696 100.83 35V65C100.83 71.6304 98.1962 77.9893 93.5077 82.6777C88.8193 87.3661 82.4605 90 75.8301 90H65.8301V100H75.8301C77.1562 100 78.4279 100.527 79.3656 101.464C80.3033 102.402 80.8301 103.674 80.8301 105C80.8301 106.326 80.3033 107.598 79.3656 108.536C78.4279 109.473 77.1562 110 75.8301 110H45.8301C44.504 110 43.2322 109.473 42.2945 108.536C41.3569 107.598 40.8301 106.326 40.8301 105C40.8301 103.674 41.3569 102.402 42.2945 101.464C43.2322 100.527 44.504 100 45.8301 100H55.8301V90H45.8301C39.1997 90 32.8408 87.3661 28.1524 82.6777C23.464 77.9893 20.8301 71.6304 20.8301 65V35ZM60.8301 80H75.8301C79.8083 80 83.6236 78.4196 86.4367 75.6066C89.2497 72.7936 90.8301 68.9782 90.8301 65H75.8301C74.504 65 73.2322 64.4732 72.2945 63.5355C71.3569 62.5979 70.8301 61.3261 70.8301 60C70.8301 58.6739 71.3569 57.4021 72.2945 56.4645C73.2322 55.5268 74.504 55 75.8301 55H90.8301V45H75.8301C74.504 45 73.2322 44.4732 72.2945 43.5355C71.3569 42.5979 70.8301 41.3261 70.8301 40C70.8301 38.6739 71.3569 37.4021 72.2945 36.4645C73.2322 35.5268 74.504 35 75.8301 35H90.8301C90.8301 31.0218 89.2497 27.2064 86.4367 24.3934C83.6236 21.5804 79.8083 20 75.8301 20H45.8301C41.8518 20 38.0365 21.5804 35.2235 24.3934C32.4104 27.2064 30.8301 31.0218 30.8301 35H45.8301C47.1562 35 48.4279 35.5268 49.3656 36.4645C50.3033 37.4021 50.8301 38.6739 50.8301 40C50.8301 41.3261 50.3033 42.5979 49.3656 43.5355C48.4279 44.4732 47.1562 45 45.8301 45H30.8301V55H45.8301C47.1562 55 48.4279 55.5268 49.3656 56.4645C50.3033 57.4021 50.8301 58.6739 50.8301 60C50.8301 61.3261 50.3033 62.5979 49.3656 63.5355C48.4279 64.4732 47.1562 65 45.8301 65H30.8301C30.8301 68.9782 32.4104 72.7936 35.2235 75.6066C38.0365 78.4196 41.8518 80 45.8301 80H60.8301Z" fill="white"/>
</g>
<defs>
<clipPath id="clip0_18_73">
<rect width="120" height="120" fill="white" transform="translate(0.830078)"/>
</clipPath>
</defs>
</svg>
