<svg width="121" height="120" viewBox="0 0 121 120" fill="none" xmlns="http://www.w3.org/2000/svg">
<g clip-path="url(#clip0_18_64)">
<path d="M60.8301 10C88.4451 10 110.83 32.385 110.83 60C110.83 63.245 110.52 66.42 109.93 69.5C108 79.52 97.9451 83.75 89.5201 82.35L80.8201 80.9C79.8077 80.7312 78.7696 80.8065 77.7922 81.1196C76.8147 81.4327 75.9261 81.9745 75.2001 82.7C73.3501 84.55 72.4651 87.095 73.7101 89.58C75.8251 93.81 75.8551 98.64 73.9851 102.595C71.4851 107.9 66.3801 110 60.8301 110C33.2151 110 10.8301 87.615 10.8301 60C10.8301 32.385 33.2151 10 60.8301 10ZM60.8301 20C50.2214 20 40.0473 24.2143 32.5458 31.7157C25.0444 39.2172 20.8301 49.3913 20.8301 60C20.8301 70.6087 25.0444 80.7828 32.5458 88.2843C40.0473 95.7857 50.2214 100 60.8301 100L61.8051 99.99C63.0951 99.94 64.3051 99.69 64.9451 98.33C65.2357 97.6491 65.3704 96.9118 65.3392 96.1721C65.3081 95.4324 65.1119 94.7091 64.7651 94.055C61.6151 87.745 63.2551 80.505 68.1301 75.63C69.9814 73.7786 72.2479 72.3958 74.7411 71.5966C77.2344 70.7974 79.8824 70.6048 82.4651 71.035L91.1651 72.485C95.9501 73.285 99.5051 70.745 100.11 67.61C101.232 61.8189 101.06 55.8513 99.605 50.1347C98.1502 44.4182 95.449 39.0941 91.695 34.544C87.941 29.9939 83.2271 26.3304 77.8911 23.816C72.555 21.3016 66.7289 19.9984 60.8301 20V20ZM38.3301 55C39.315 55 40.2903 55.194 41.2002 55.5709C42.1101 55.9478 42.9369 56.5003 43.6334 57.1967C44.3298 57.8931 44.8823 58.7199 45.2592 59.6299C45.6361 60.5398 45.8301 61.5151 45.8301 62.5C45.8301 63.4849 45.6361 64.4602 45.2592 65.3701C44.8823 66.2801 44.3298 67.1069 43.6334 67.8033C42.9369 68.4997 42.1101 69.0522 41.2002 69.4291C40.2903 69.806 39.315 70 38.3301 70C36.341 70 34.4333 69.2098 33.0268 67.8033C31.6203 66.3968 30.8301 64.4891 30.8301 62.5C30.8301 60.5109 31.6203 58.6032 33.0268 57.1967C34.4333 55.7902 36.341 55 38.3301 55V55ZM73.3301 35C75.3192 35 77.2269 35.7902 78.6334 37.1967C80.0399 38.6032 80.8301 40.5109 80.8301 42.5C80.8301 44.4891 80.0399 46.3968 78.6334 47.8033C77.2269 49.2098 75.3192 50 73.3301 50C71.341 50 69.4333 49.2098 68.0268 47.8033C66.6203 46.3968 65.8301 44.4891 65.8301 42.5C65.8301 40.5109 66.6203 38.6032 68.0268 37.1967C69.4333 35.7902 71.341 35 73.3301 35ZM48.3301 35C50.3192 35 52.2269 35.7902 53.6334 37.1967C55.0399 38.6032 55.8301 40.5109 55.8301 42.5C55.8301 44.4891 55.0399 46.3968 53.6334 47.8033C52.2269 49.2098 50.3192 50 48.3301 50C46.341 50 44.4333 49.2098 43.0268 47.8033C41.6203 46.3968 40.8301 44.4891 40.8301 42.5C40.8301 40.5109 41.6203 38.6032 43.0268 37.1967C44.4333 35.7902 46.341 35 48.3301 35Z" fill="white"/>
</g>
<defs>
<clipPath id="clip0_18_64">
<rect width="120" height="120" fill="white" transform="translate(0.830078)"/>
</clipPath>
</defs>
</svg>
