<svg width="121" height="120" viewBox="0 0 121 120" fill="none" xmlns="http://www.w3.org/2000/svg">
<path d="M90.8301 30H72.8801L84.3801 18.55C84.8463 18.0838 85.2161 17.5303 85.4684 16.9212C85.7207 16.3121 85.8505 15.6592 85.8505 15C85.8505 14.3407 85.7207 13.6878 85.4684 13.0787C85.2161 12.4696 84.8463 11.9161 84.3801 11.45C83.9139 10.9838 83.3604 10.614 82.7513 10.3617C82.1422 10.1093 81.4894 9.97949 80.8301 9.97949C79.4986 9.97949 78.2216 10.5084 77.2801 11.45L60.8301 27.95L44.3801 11.45C43.9139 10.9838 43.3604 10.614 42.7513 10.3617C42.1422 10.1093 41.4894 9.97949 40.8301 9.97949C40.1708 9.97949 39.5179 10.1093 38.9088 10.3617C38.2997 10.614 37.7463 10.9838 37.2801 11.45C36.3386 12.3915 35.8096 13.6684 35.8096 15C35.8096 15.6592 35.9395 16.3121 36.1918 16.9212C36.4441 17.5303 36.8139 18.0838 37.2801 18.55L48.7801 30H30.8301C26.8518 30 23.0365 31.5803 20.2235 34.3933C17.4104 37.2064 15.8301 41.0217 15.8301 45V94.9999C15.8301 98.9782 17.4104 102.794 20.2235 105.607C23.0365 108.42 26.8518 110 30.8301 110H90.8301C94.8083 110 98.6236 108.42 101.437 105.607C104.25 102.794 105.83 98.9782 105.83 94.9999V45C105.83 41.0217 104.25 37.2064 101.437 34.3933C98.6236 31.5803 94.8083 30 90.8301 30ZM95.8301 94.9999C95.8301 96.326 95.3033 97.5978 94.3656 98.5355C93.4279 99.4732 92.1562 99.9999 90.8301 99.9999H30.8301C29.504 99.9999 28.2322 99.4732 27.2945 98.5355C26.3569 97.5978 25.8301 96.326 25.8301 94.9999V45C25.8301 43.6739 26.3569 42.4021 27.2945 41.4644C28.2322 40.5267 29.504 40 30.8301 40H90.8301C92.1562 40 93.4279 40.5267 94.3656 41.4644C95.3033 42.4021 95.8301 43.6739 95.8301 45V94.9999Z" fill="white"/>
</svg>
